<svg width="1010" height="252" viewBox="0 0 1010 252" fill="none" xmlns="http://www.w3.org/2000/svg">
<path d="M266.998 6L182.32 126H6L90.6777 6H266.998Z" fill="#A00123"/>
<path d="M330.68 246L246.001 126H6L90.6787 246H330.68Z" fill="#CF012B"/>
<path d="M998.971 95.7583V114.661H948.779V135.866H990.568V154.557H948.779V176.19H1003.17V195.086H924.838V95.7583H998.971Z" fill="#2B2A2A"/>
<path d="M821.895 95.7583L847.641 153.239L872.502 95.7583H900.012L904.846 195.086H880.066L879.029 121.651L852.762 190.047H840.375L811.781 124.018L812.232 195.086H789.551L794.174 95.7583H821.895Z" fill="#2B2A2A"/>
<path d="M743.347 195.09V95.7602H768.547V195.09H743.347Z" fill="#2B2A2A"/>
<path d="M621.463 56.9106L696.211 154.047L693.703 56.9106H718.061V195.092H696.434L617.115 91.856L619.781 195.092H595.418V56.9106H621.463Z" fill="#2B2A2A"/>
<path d="M523.892 196.56C513.952 196.56 504.992 194.32 497.012 189.84C489.172 185.36 483.012 179.34 478.532 171.78C474.052 164.22 471.812 155.82 471.812 146.58C471.812 137.06 474.122 128.38 478.742 120.54C483.362 112.56 489.732 106.19 497.852 101.43C506.112 96.6702 515.492 94.2902 525.992 94.2902C535.932 94.2902 544.822 96.5302 552.662 101.01C560.642 105.35 566.872 111.37 571.352 119.07C575.972 126.63 578.282 135.24 578.282 144.9C578.282 154.98 575.832 163.94 570.932 171.78C566.032 179.48 559.452 185.57 551.192 190.05C542.932 194.39 533.832 196.56 523.892 196.56ZM526.412 178.29C531.592 178.29 536.072 177.03 539.852 174.51C543.632 171.99 546.572 168.42 548.672 163.8C550.772 159.18 551.822 153.65 551.822 147.21C551.822 140.21 550.562 134.12 548.042 128.94C545.662 123.76 542.372 119.77 538.172 116.97C533.972 114.03 529.142 112.56 523.682 112.56C518.782 112.56 514.372 113.82 510.452 116.34C506.672 118.86 503.662 122.5 501.422 127.26C499.322 131.88 498.272 137.48 498.272 144.06C498.272 150.92 499.462 156.94 501.842 162.12C504.362 167.3 507.722 171.29 511.922 174.09C516.122 176.89 520.952 178.29 526.412 178.29Z" fill="#2B2A2A"/>
<path d="M420.5 197.82C406.22 197.82 393.69 194.95 382.91 189.21C372.13 183.33 363.73 175.21 357.71 164.85C351.69 154.35 348.68 142.24 348.68 128.52C348.68 116.76 350.64 106.33 354.56 97.2302C358.62 87.9902 364.15 80.2202 371.15 73.9202C378.15 67.4802 386.2 62.5802 395.3 59.2202C404.4 55.8602 414.13 54.1802 424.49 54.1802C431.91 54.1802 439.4 55.2302 446.96 57.3302C454.52 59.2902 461.73 62.3002 468.59 66.3602L456.41 89.8802C450.11 84.4202 443.88 80.4302 437.72 77.9102C431.7 75.2502 425.4 73.9202 418.82 73.9202C410.28 73.9202 402.86 75.9502 396.56 80.0102C390.4 83.9302 385.64 89.6702 382.28 97.2302C379.06 104.65 377.45 113.54 377.45 123.9C377.45 134.96 379.55 144.62 383.75 152.88C387.95 161 393.48 167.37 400.34 171.99C407.34 176.47 414.9 178.71 423.02 178.71C430.3 178.71 437.02 177.24 443.18 174.3C449.34 171.36 454.52 167.51 458.72 162.75L469.85 183.75C462.57 188.51 454.73 192.08 446.33 194.46C438.07 196.7 429.46 197.82 420.5 197.82Z" fill="#2B2A2A"/>
</svg>
